<?xml version="1.0" standalone="no"?>
<!DOCTYPE svg PUBLIC "-//W3C//DTD SVG 20010904//EN"
 "http://www.w3.org/TR/2001/REC-SVG-20010904/DTD/svg10.dtd">
<svg version="1.0" xmlns="http://www.w3.org/2000/svg"
 width="1791.000000pt" height="1791.000000pt" viewBox="0 0 1791.000000 1791.000000"
 preserveAspectRatio="xMidYMid meet">

<g transform="translate(0.000000,1791.000000) scale(0.100000,-0.100000)"
fill="#000000" stroke="none">
<path d="M8500 17894 c-666 -44 -1148 -115 -1691 -250 -1413 -348 -2674 -1013
-3809 -2008 -148 -130 -596 -578 -726 -726 -953 -1087 -1608 -2301 -1963
-3637 -193 -729 -285 -1399 -298 -2168 -13 -817 71 -1563 262 -2327 747 -2978
2978 -5371 5895 -6326 687 -225 1331 -353 2110 -419 261 -22 1025 -25 1290 -5
1573 119 2996 597 4281 1437 1973 1290 3362 3312 3854 5610 133 623 195 1215
195 1881 0 476 -26 855 -91 1299 -417 2876 -2227 5386 -4829 6695 -1036 521
-2112 823 -3300 926 -173 15 -1027 28 -1180 18z m765 -204 c979 -39 1869 -216
2760 -550 282 -106 407 -161 397 -174 -5 -6 -117 -150 -248 -321 -311 -405
-2257 -2932 -2992 -3885 -316 -410 -600 -771 -631 -803 -146 -153 -391 -269
-711 -341 -263 -58 -73 -51 -2665 -96 -665 -12 -1235 -24 -1265 -27 -31 -4
583 -38 1435 -79 820 -40 1535 -77 1590 -83 311 -32 576 -45 955 -45 573 0
588 4 791 211 420 430 1529 1805 2819 3495 662 868 771 1000 1075 1304 169
169 364 343 430 383 21 13 31 10 136 -49 565 -312 1096 -684 1571 -1099 116
-101 359 -329 366 -341 1 -3 -891 -982 -1983 -2175 -1092 -1192 -1985 -2172
-1985 -2177 0 -4 979 -9 2175 -10 l2176 -3 -2568 -2660 c-1412 -1463 -2593
-2683 -2623 -2711 -30 -28 -891 -828 -1913 -1777 -1021 -950 -1859 -1727
-1862 -1727 -2 0 21 39 51 86 633 982 4374 6828 4371 6831 -3 2 -1485 -55
-3293 -127 -1809 -71 -3307 -131 -3329 -131 -119 -4 318 -31 2765 -174 1471
-86 2687 -159 2703 -163 27 -7 9 -35 -2328 -3572 -1295 -1961 -2360 -3567
-2365 -3568 -14 -5 -400 204 -593 319 -328 197 -706 460 -1007 703 -451 363
-953 865 -1316 1316 -1081 1342 -1738 2955 -1898 4660 -37 390 -48 952 -26
1323 87 1454 518 2833 1269 4062 540 884 1270 1700 2101 2346 1247 972 2756
1590 4321 1773 498 58 885 74 1344 56z m6439 -3181 c1635 -1986 2308 -4576
1850 -7124 -239 -1325 -800 -2603 -1624 -3695 -575 -762 -1309 -1456 -2101
-1987 -1259 -844 -2640 -1326 -4179 -1460 -258 -22 -1088 -25 -1325 -5 -748
65 -1340 177 -1969 374 -198 61 -506 170 -506 178 0 4 919 972 2043 2152
l2042 2146 3373 3131 c1855 1721 3374 3134 3375 3138 1 4 -878 20 -1953 35
-1075 14 -1985 28 -2022 30 l-68 3 1462 1618 c804 889 1467 1616 1473 1614 5
-2 63 -68 129 -148z"/>
<path d="M5208 9911 c-2078 -32 -3780 -59 -3782 -62 -3 -2 1756 -55 3907 -117
2152 -63 3976 -116 4055 -119 l142 -6 0 181 0 182 -272 -1 c-150 -1 -1973 -27
-4050 -58z"/>
</g>
</svg>
